<svg xmlns="http://www.w3.org/2000/svg" width="1200" height="630" viewBox="0 0 1200 630"><defs><linearGradient id="bg3" x1="0%" y1="0%" x2="100%" y2="100%"><stop offset="0%" stop-color="#2d3436"/><stop offset="100%" stop-color="#1a1a2e"/></linearGradient></defs><rect width="1200" height="630" fill="url(#bg3)"/><rect x="0" y="0" width="1200" height="8" fill="#A5D549"/><text x="600" y="210" text-anchor="middle" fill="white" font-size="54" font-weight="bold" font-family="Arial,sans-serif">Visa Document Checklist 2026</text><text x="600" y="270" text-anchor="middle" fill="#A5D549" font-size="28" font-family="Arial,sans-serif">Passport | Photos | Bank Statements | Insurance</text><rect x="120" y="330" width="240" height="50" rx="25" fill="rgba(165,213,73,0.15)"/><text x="240" y="362" text-anchor="middle" fill="#A5D549" font-size="18" font-weight="bold">Valid Passport</text><rect x="390" y="330" width="240" height="50" rx="25" fill="rgba(255,255,255,0.1)"/><text x="510" y="362" text-anchor="middle" fill="white" font-size="18" font-weight="bold">Application Form</text><rect x="660" y="330" width="240" height="50" rx="25" fill="rgba(255,255,255,0.1)"/><text x="780" y="362" text-anchor="middle" fill="white" font-size="18" font-weight="bold">Passport Photos</text><rect x="230" y="410" width="240" height="50" rx="25" fill="rgba(255,255,255,0.1)"/><text x="350" y="442" text-anchor="middle" fill="white" font-size="18" font-weight="bold">Bank Statements</text><rect x="500" y="410" width="240" height="50" rx="25" fill="rgba(255,255,255,0.1)"/><text x="620" y="442" text-anchor="middle" fill="white" font-size="18" font-weight="bold">Travel Insurance</text><rect x="770" y="410" width="240" height="50" rx="25" fill="rgba(165,213,73,0.15)"/><text x="890" y="442" text-anchor="middle" fill="#A5D549" font-size="18" font-weight="bold">Travel Itinerary</text><text x="600" y="530" text-anchor="middle" fill="rgba(255,255,255,0.4)" font-size="18">myvisaassistance.com</text></svg>